<svg id="visual" viewBox="0 0 900 600" width="900" height="600" xmlns="http://www.w3.org/2000/svg" xmlns:xlink="http://www.w3.org/1999/xlink" version="1.1"><path d="M0 79L82 97L164 67L245 85L327 91L409 103L491 85L573 97L655 37L736 37L818 61L900 61L900 0L818 0L736 0L655 0L573 0L491 0L409 0L327 0L245 0L164 0L82 0L0 0Z" fill="#038373"></path><path d="M0 157L82 151L164 157L245 151L327 169L409 169L491 139L573 145L655 103L736 133L818 133L900 157L900 59L818 59L736 35L655 35L573 95L491 83L409 101L327 89L245 83L164 65L82 95L0 77Z" fill="#00b087"></path><path d="M0 343L82 235L164 235L245 385L327 325L409 259L491 265L573 241L655 181L736 319L818 385L900 343L900 155L818 131L736 131L655 101L573 143L491 137L409 167L327 167L245 149L164 155L82 149L0 155Z" fill="#00cc8e"></path><path d="M0 475L82 457L164 457L245 511L327 469L409 529L491 457L573 439L655 427L736 463L818 535L900 517L900 341L818 383L736 317L655 179L573 239L491 263L409 257L327 323L245 383L164 233L82 233L0 341Z" fill="#00b087"></path><path d="M0 601L82 601L164 601L245 601L327 601L409 601L491 601L573 601L655 601L736 601L818 601L900 601L900 515L818 533L736 461L655 425L573 437L491 455L409 527L327 467L245 509L164 455L82 455L0 473Z" fill="#038373"></path></svg>