<svg id="visual" viewBox="0 0 900 600" width="900" height="600" xmlns="http://www.w3.org/2000/svg" xmlns:xlink="http://www.w3.org/1999/xlink" version="1.1"><rect x="0" y="0" width="900" height="600" fill="#7CCBBA"></rect><path d="M151 600L185 600L185 574L172 574L172 548L377 548L377 522L342 522L342 496L157 496L157 470L337 470L337 443L391 443L391 417L327 417L327 391L352 391L352 365L277 365L277 339L338 339L338 313L238 313L238 287L323 287L323 261L379 261L379 235L154 235L154 209L148 209L148 183L453 183L453 157L214 157L214 130L317 130L317 104L415 104L415 78L206 78L206 52L98 52L98 26L177 26L177 0L900 0L900 26L900 26L900 52L900 52L900 78L900 78L900 104L900 104L900 130L900 130L900 157L900 157L900 183L900 183L900 209L900 209L900 235L900 235L900 261L900 261L900 287L900 287L900 313L900 313L900 339L900 339L900 365L900 365L900 391L900 391L900 417L900 417L900 443L900 443L900 470L900 470L900 496L900 496L900 522L900 522L900 548L900 548L900 574L900 574L900 600L900 600Z" fill="#60bba2"></path><path d="M525 600L393 600L393 574L307 574L307 548L281 548L281 522L327 522L327 496L268 496L268 470L557 470L557 443L326 443L326 417L509 417L509 391L319 391L319 365L504 365L504 339L422 339L422 313L491 313L491 287L546 287L546 261L422 261L422 235L396 235L396 209L285 209L285 183L503 183L503 157L345 157L345 130L501 130L501 104L246 104L246 78L475 78L475 52L300 52L300 26L536 26L536 0L900 0L900 26L900 26L900 52L900 52L900 78L900 78L900 104L900 104L900 130L900 130L900 157L900 157L900 183L900 183L900 209L900 209L900 235L900 235L900 261L900 261L900 287L900 287L900 313L900 313L900 339L900 339L900 365L900 365L900 391L900 391L900 417L900 417L900 443L900 443L900 470L900 470L900 496L900 496L900 522L900 522L900 548L900 548L900 574L900 574L900 600L900 600Z" fill="#5cb39b"></path><path d="M653 600L536 600L536 574L498 574L498 548L396 548L396 522L493 522L493 496L416 496L416 470L532 470L532 443L472 443L472 417L403 417L403 391L479 391L479 365L442 365L442 339L537 339L537 313L525 313L525 287L504 287L504 261L671 261L671 235L538 235L538 209L412 209L412 183L410 183L410 157L582 157L582 130L414 130L414 104L622 104L622 78L391 78L391 52L521 52L521 26L576 26L576 0L900 0L900 26L900 26L900 52L900 52L900 78L900 78L900 104L900 104L900 130L900 130L900 157L900 157L900 183L900 183L900 209L900 209L900 235L900 235L900 261L900 261L900 287L900 287L900 313L900 313L900 339L900 339L900 365L900 365L900 391L900 391L900 417L900 417L900 443L900 443L900 470L900 470L900 496L900 496L900 522L900 522L900 548L900 548L900 574L900 574L900 600L900 600Z" fill="#58ab94"></path><path d="M768 600L592 600L592 574L585 574L585 548L686 548L686 522L645 522L645 496L707 496L707 470L623 470L623 443L531 443L531 417L650 417L650 391L539 391L539 365L709 365L709 339L764 339L764 313L690 313L690 287L761 287L761 261L683 261L683 235L574 235L574 209L786 209L786 183L668 183L668 157L577 157L577 130L714 130L714 104L708 104L708 78L568 78L568 52L712 52L712 26L502 26L502 0L900 0L900 26L900 26L900 52L900 52L900 78L900 78L900 104L900 104L900 130L900 130L900 157L900 157L900 183L900 183L900 209L900 209L900 235L900 235L900 261L900 261L900 287L900 287L900 313L900 313L900 339L900 339L900 365L900 365L900 391L900 391L900 417L900 417L900 443L900 443L900 470L900 470L900 496L900 496L900 522L900 522L900 548L900 548L900 574L900 574L900 600L900 600Z" fill="#54a38d"></path><path d="M764 600L682 600L682 574L899 574L899 548L800 548L800 522L844 522L844 496L816 496L816 470L745 470L745 443L633 443L633 417L670 417L670 391L771 391L771 365L834 365L834 339L832 339L832 313L694 313L694 287L796 287L796 261L719 261L719 235L749 235L749 209L890 209L890 183L810 183L810 157L779 157L779 130L645 130L645 104L711 104L711 78L765 78L765 52L635 52L635 26L737 26L737 0L900 0L900 26L900 26L900 52L900 52L900 78L900 78L900 104L900 104L900 130L900 130L900 157L900 157L900 183L900 183L900 209L900 209L900 235L900 235L900 261L900 261L900 287L900 287L900 313L900 313L900 339L900 339L900 365L900 365L900 391L900 391L900 417L900 417L900 443L900 443L900 470L900 470L900 496L900 496L900 522L900 522L900 548L900 548L900 574L900 574L900 600L900 600Z" fill="#519c87"></path></svg>